<?xml version="1.0" encoding="UTF-8" standalone="no" ?>
<!-- Creator: CorelDRAW X7 -->

<svg xmlns:dc="http://purl.org/dc/elements/1.1/" xmlns:cc="http://creativecommons.org/ns#" xmlns:rdf="http://www.w3.org/1999/02/22-rdf-syntax-ns#" xmlns:svg="http://www.w3.org/2000/svg" xmlns="http://www.w3.org/2000/svg" xmlns:sodipodi="http://sodipodi.sourceforge.net/DTD/sodipodi-0.dtd" xmlns:inkscape="http://www.inkscape.org/namespaces/inkscape" xml:space="preserve" width="74" height="8" version="1.1" style="clip-rule:evenodd;fill-rule:evenodd;image-rendering:optimizeQuality;shape-rendering:geometricPrecision;text-rendering:geometricPrecision" viewBox="0 0 822.15032 88.806104" id="svg2" inkscape:version="0.91 r13725" sodipodi:docname="bucket-list-wave.svg">
  <metadata id="metadata33">
    <rdf:RDF>
      <cc:Work rdf:about="">
        <dc:format>image/svg+xml</dc:format>
        <dc:type rdf:resource="http://purl.org/dc/dcmitype/StillImage" />
        <dc:title></dc:title>
      </cc:Work>
    </rdf:RDF>
  </metadata>
  <sodipodi:namedview pagecolor="#ffffff" bordercolor="#666666" borderopacity="1" objecttolerance="10" gridtolerance="10" guidetolerance="10" inkscape:pageopacity="0" inkscape:pageshadow="2" inkscape:window-width="1315" inkscape:window-height="744" id="namedview31" showgrid="false" units="px" inkscape:zoom="7.4757471" inkscape:cx="36.048041" inkscape:cy="-4.9323267" inkscape:window-x="51" inkscape:window-y="24" inkscape:window-maximized="1" inkscape:current-layer="svg2" />
  <defs id="defs4">
    <style type="text/css" id="style6">
      <![CDATA[
    .fil0 {fill:#E31E43}
   ]]>
    </style>
  </defs>
  <g id="Layer_x0020_1" transform="matrix(0.24260733,0,0,0.40701534,-16.966612,-3.7022149)">
    <metadata id="CorelCorpID_0Corel-Layer" />
    <g id="_268950944">
      <path class="fil0" d="M 1010,168 C 903,168 868,147 778,103 710,69 669,28 577,28 457,28 318,173 219,173 139,177 81,100 79,103 c -10,3 29,35 47,48 91,67 202,-2 282,-51 51,-31 121,-74 195,-63 143,20 293,207 504,118 93,-39 206,-202 373,-110 44,25 79,55 115,87 76,68 176,96 268,39 l 79,-51 c 187,-112 229,-47 375,25 101,51 202,83 315,35 31,-13 57,-34 82,-53 90,-68 180,-117 291,-56 119,76 208,223 389,122 18,-12 62,-40 72,-54 1,-2 -2,-4 -5,-2 -37,17 -87,82 -181,82 -158,0 -221,-184 -366,-184 -91,0 -126,26 -200,82 -80,60 -108,77 -215,77 -216,0 -306,-255 -574,-77 -27,18 -40,34 -71,50 C 1629,279 1566,9 1395,9 c -84,-2 -132,27 -206,82 -46,36 -100,77 -179,77 z" id="path11" inkscape:connector-curvature="0" style="fill:#E31E43" />
      <circle class="fil0" cx="1746" cy="44" r="26" id="circle13" style="fill:#E31E43" />
      <circle class="fil0" cx="2501" cy="44" r="26" id="circle15" style="fill:#E31E43" />
      <circle class="fil0" cx="3280" cy="44" r="26" id="circle17" style="fill:#E31E43" />
      <circle class="fil0" cx="219" cy="44" r="26" id="circle19" style="fill:#E31E43" />
      <circle class="fil0" cx="999" cy="44" r="26" id="circle21" style="fill:#E31E43" />
      <circle class="fil0" cx="2110" cy="177" r="26" id="circle23" style="fill:#E31E43" />
      <circle class="fil0" cx="583" cy="177" r="26" id="circle25" style="fill:#E31E43" />
      <circle class="fil0" cx="1362" cy="177" r="26" id="circle27" style="fill:#E31E43" />
      <circle class="fil0" cx="2945" cy="177" r="26" id="circle29" style="fill:#E31E43" />
    </g>
  </g>
</svg>