<?xml version="1.0" encoding="UTF-8" ?>
<svg width="59px" height="106px" viewBox="0 0 59 106" version="1.1" xmlns="http://www.w3.org/2000/svg" xmlns:xlink="http://www.w3.org/1999/xlink">
    <!-- Generator: sketchtool 52.6 (67491) - http://www.bohemiancoding.com/sketch -->
    <title>BD48C2FC-6445-4FDA-A1AF-84D507366165-477-00001917F36A3BC9</title>
    <desc>Created with sketchtool.</desc>
    <g id="Mobile-Pres-R3" stroke="none" stroke-width="1" fill="none" fill-rule="evenodd" stroke-linecap="round" stroke-linejoin="round">
        <g id="0.0-Home-—-Mobile-No-image" transform="translate(-231.000000, -6418.000000)" stroke="#E31E43" stroke-width="1.4">
            <g id="footer/-footer-mobile-v2" transform="translate(0.000000, 6024.000000)">
                <g id="Footer-mobile-v2">
                    <g id="illustration" transform="translate(0.000000, 393.158126)">
                        <g id="tower-tree" transform="translate(232.000000, 1.970717)">
                            <g id="tree" transform="translate(36.000000, 51.238653)">
                                <path d="M21,25.0675261 C21,30.8358425 16.2988,35.5123289 10.5,35.5123289 C4.7012,35.5123289 0,30.8358425 0,25.0675261 C0,19.2992098 4.7012,14.6227234 10.5,14.6227234 C16.2988,14.6227234 21,19.2992098 21,25.0675261 Z" id="Stroke-1"></path>
                                <path d="M17.5,6.9632015 C17.5,10.8089777 14.3654,13.926403 10.5,13.926403 C6.6346,13.926403 3.5,10.8089777 3.5,6.9632015 C3.5,3.11742531 6.6346,0 10.5,0 C14.3654,0 17.5,3.11742531 17.5,6.9632015 Z" id="Stroke-3"></path>
                                <path d="M10.5,35.5123289 L10.5,52.2240117" id="Stroke-5"></path>
                            </g>
                            <g id="building">
                                <polygon id="Stroke-1" points="0 103.462667 17 103.462667 17 12.4155201 0 12.4155201"></polygon>
                                <path d="M13.4583333,44.83382 C13.4583333,47.5003978 11.2384167,49.6620777 8.5,49.6620777 C5.76158333,49.6620777 3.54166667,47.5003978 3.54166667,44.83382 C3.54166667,42.1672422 5.76158333,40.0055622 8.5,40.0055622 C11.2384167,40.0055622 13.4583333,42.1672422 13.4583333,44.83382 Z" id="Stroke-3"></path>
                                <polygon id="Stroke-4" points="8.5 0 0 12.4155201 17 12.4155201"></polygon>
                                <path d="M7.08333333,22.7617867 C7.08333333,21.8092404 6.29070833,21.0374089 5.3125,21.0374089 C4.33429167,21.0374089 3.54166667,21.8092404 3.54166667,22.7617867 L3.54166667,28.9695467 L7.08333333,28.9695467 L7.08333333,22.7617867 Z" id="Stroke-5"></path>
                                <path d="M13.4583333,22.7617867 C13.4583333,21.8092404 12.6657083,21.0374089 11.6875,21.0374089 C10.7092917,21.0374089 9.91666667,21.8092404 9.91666667,22.7617867 L9.91666667,28.9695467 L13.4583333,28.9695467 L13.4583333,22.7617867 Z" id="Stroke-6"></path>
                                <path d="M0.708333333,34.4875564 L16.2916667,34.4875564" id="Stroke-7"></path>
                                <path d="M0.708333333,91.0471479 L16.2916667,91.0471479" id="Stroke-8"></path>
                                <path d="M0.708333333,15.8642753 L16.2916667,15.8642753" id="Stroke-9"></path>
                                <polyline id="Stroke-10" points="8.5 42.0748177 8.5 44.8338222 10.625 46.9030755"></polyline>
                                <path d="M9.91666667,56.55959 C9.91666667,55.7981048 9.282,55.1800878 8.5,55.1800878 C7.718,55.1800878 7.08333333,55.7981048 7.08333333,56.55959 L7.08333333,60.6980965 L9.91666667,60.6980965 L9.91666667,56.55959 Z" id="Stroke-11"></path>
                                <path d="M9.91666667,69.6648639 C9.91666667,68.9033787 9.282,68.2853617 8.5,68.2853617 C7.718,68.2853617 7.08333333,68.9033787 7.08333333,69.6648639 L7.08333333,73.8033704 L9.91666667,73.8033704 L9.91666667,69.6648639 Z" id="Stroke-12"></path>
                                <path d="M9.91666667,82.0803822 C9.91666667,81.318897 9.282,80.70088 8.5,80.70088 C7.718,80.70088 7.08333333,81.318897 7.08333333,82.0803822 L7.08333333,86.2188887 L9.91666667,86.2188887 L9.91666667,82.0803822 Z" id="Stroke-13"></path>
                            </g>
                        </g>
                    </g>
                </g>
            </g>
        </g>
    </g>
</svg>