<?xml version="1.0" encoding="UTF-8" ?>
<svg width="104px" height="108px" viewBox="0 0 104 108" version="1.1" xmlns="http://www.w3.org/2000/svg" xmlns:xlink="http://www.w3.org/1999/xlink">
    <!-- Generator: sketchtool 52.6 (67491) - http://www.bohemiancoding.com/sketch -->
    <title>53B94525-BF38-4B16-8B9C-EB370129D031-477-00001917F368F843</title>
    <desc>Created with sketchtool.</desc>
    <g id="Mobile-Pres-R3" stroke="none" stroke-width="1" fill="none" fill-rule="evenodd">
        <g id="0.0-Home-—-Mobile-No-image" transform="translate(-19.000000, -6416.000000)">
            <g id="footer/-footer-mobile-v2" transform="translate(0.000000, 6024.000000)">
                <g id="Footer-mobile-v2">
                    <g id="illustration" transform="translate(0.000000, 393.158126)">
                        <g id="girl-bike" transform="translate(20.000000, 0.000000)">
                            <polyline id="Stroke-1" stroke="#E31E43" stroke-width="1.4" stroke-linecap="round" stroke-linejoin="round" points="46.3407695 74.4235634 44.7123288 80.087568 54.4931507 81.3146341 50.8291591 77.6734883 50.004761 76.4464222"></polyline>
                            <path d="M78.2465753,40.3127641 L59.3835616,40.3127641" id="Stroke-2" stroke="#E31E43" stroke-width="1.4" stroke-linecap="round" stroke-linejoin="round"></path>
                            <g id="Group-5" transform="translate(45.410959, 59.952314)">
                                <polyline id="Fill-3" fill="#E31E43" points="8.83610567 3.10947784 5.53349047 17.8410561 0.166740785 15.8503023 2.64370218 0.322422493"></polyline>
                                <polyline id="Stroke-4" stroke="#E31E43" stroke-width="1.4" stroke-linecap="round" stroke-linejoin="round" points="8.83610567 3.10947784 5.53349047 17.8410561 0.166740785 15.8503023 2.64370218 0.322422493"></polyline>
                            </g>
                            <g id="Group-50">
                                <path d="M37.5935395,86.9716712 C37.5935395,97.1676043 29.1781282,105.43342 18.7967492,105.43342 C8.41578145,105.43342 -4.11290323e-05,97.1676043 -4.11290323e-05,86.9716712 C-4.11290323e-05,76.7753342 8.41578145,68.5099226 18.7967492,68.5099226 C29.1781282,68.5099226 37.5935395,76.7753342 37.5935395,86.9716712 Z" id="Stroke-6" stroke="#E31E43" stroke-width="1.4" stroke-linecap="round" stroke-linejoin="round"></path>
                                <path d="M101.75483,86.9716712 C101.75483,97.1676043 93.3394185,105.43342 82.9580395,105.43342 C72.5770718,105.43342 64.1612492,97.1676043 64.1612492,86.9716712 C64.1612492,76.7753342 72.5770718,68.5099226 82.9580395,68.5099226 C93.3394185,68.5099226 101.75483,76.7753342 101.75483,86.9716712 Z" id="Stroke-8" stroke="#E31E43" stroke-width="1.4" stroke-linecap="round" stroke-linejoin="round"></path>
                                <path d="M85.0921839,86.9716712 C85.0921839,86.9716712 81.0927968,85.6539559 78.7192403,80.0203395 C76.3460952,74.386723 70.0854339,50.4182016 69.2628532,45.9746492 C68.4402726,41.5310969 72.1418855,39.5113004 72.1418855,39.5113004" id="Stroke-10" stroke="#E31E43" stroke-width="1.4" stroke-linecap="round" stroke-linejoin="round"></path>
                                <path d="M43.3873863,87.788643 C43.3873863,87.788643 53.3517169,78.0819044 55.6607008,75.4396065 C57.970096,72.7977125 71.7306363,56.4773518 71.7306363,56.4773518" id="Stroke-12" stroke="#E31E43" stroke-width="1.4" stroke-linecap="round" stroke-linejoin="round"></path>
                                <path d="M70.085475,49.6101634 C70.085475,49.6101634 65.1499911,57.6893495 56.9241847,65.3645763 C50.3846685,71.4663816 40.4725718,76.6754368 40.4725718,76.6754368" id="Stroke-14" stroke="#E31E43" stroke-width="1.4" stroke-linecap="round" stroke-linejoin="round"></path>
                                <polyline id="Stroke-16" stroke="#E31E43" stroke-width="1.4" stroke-linecap="round" stroke-linejoin="round" points="33.069346 52.4378787 44.9967653 93.2377714 57.335475 96.0654867"></polyline>
                                <polyline id="Stroke-18" stroke="#E31E43" stroke-width="1.4" stroke-linecap="round" stroke-linejoin="round" points="35.8759089 61.9993547 18.9402073 86.0244306 43.2877718 87.886279"></polyline>
                                <path d="M24.8459661,52.1514716 L39.1247323,52.1514716" id="Stroke-20" stroke="#E31E43" stroke-width="1.4" stroke-linecap="round" stroke-linejoin="round"></path>
                                <path d="M50.3435395,16.0815397 C50.3435395,16.0815397 52.2058621,12.2875538 53.8506121,12.2705875 C55.6249185,12.2524094 57.4267815,11.5798171 57.4267815,9.52002859 C57.4267815,8.71210996 57.8380718,8.30815065 57.8380718,8.30815065 C57.8380718,8.30815065 59.4832331,7.09627271 57.8380718,6.6923134 C55.8034185,6.19301969 55.8231605,4.57395076 55.8231605,4.57395076" id="Stroke-22" stroke="#E31E43" stroke-width="1.4" stroke-linecap="round" stroke-linejoin="round"></path>
                                <path d="M52.375725,7.71772347 C54.0546121,6.61693434 56.7691282,4.63309016 56.1929105,2.65247765 C55.3703298,-0.175237537 50.8745153,-0.528701935 48.4067734,1.89505394 C45.9390315,4.31880982 46.3219427,6.69207078 44.1741847,8.00251479 C42.0264266,9.31255484 38.9187169,9.11582665 36.0396847,10.7316639 C33.1606524,12.3475012 31.5154911,15.5791757 34.8058137,18.4068908 C38.0961363,21.234606 45.0880718,20.8306467 47.967104,15.1752163 C48.9574911,13.2297483 50.3435395,9.04998128 52.375725,7.71772347 Z" id="Stroke-24" stroke="#E31E43" stroke-width="1.4" stroke-linecap="round" stroke-linejoin="round"></path>
                                <g id="Group-29" transform="translate(30.435484, 38.780096)">
                                    <path d="M3.45644274,0.327126247 C3.45644274,0.327126247 -2.40608952,6.89590896 1.39999113,10.4261096 C5.94803952,14.6442529 10.2731685,16.7129287 15.0075315,19.630323 C16.6378863,20.6345659 17.3436605,21.0348896 19.4412411,22.5331747 C20.1482492,23.0381239 23.1983782,24.9173427 23.1983782,25.7765642 C23.1983782,26.5844829 16.6177331,50.4180835 16.6177331,50.4180835 L22.3757976,51.6299615 L31.9563944,29.8161576 C31.9563944,29.8161576 34.7145073,24.1607269 28.9564427,19.3132149 C24.9574669,15.9466178 12.9161202,5.17463824 12.9161202,5.17463824" id="Fill-26" fill="#E31E43"></path>
                                    <path d="M3.45644274,0.327126247 C3.45644274,0.327126247 -2.40608952,6.89590896 1.39999113,10.4261096 C5.94803952,14.6442529 10.2731685,16.7129287 15.0075315,19.630323 C16.6378863,20.6345659 17.3436605,21.0348896 19.4412411,22.5331747 C20.1482492,23.0381239 23.1983782,24.9173427 23.1983782,25.7765642 C23.1983782,26.5844829 16.6177331,50.4180835 16.6177331,50.4180835 L22.3757976,51.6299615 L31.9563944,29.8161576 C31.9563944,29.8161576 34.7145073,24.1607269 28.9564427,19.3132149 C24.9574669,15.9466178 12.9161202,5.17463824 12.9161202,5.17463824" id="Stroke-28" stroke="#E31E43" stroke-width="1.4" stroke-linecap="round" stroke-linejoin="round"></path>
                                </g>
                                <path d="M42.9403137,39.9151394 C42.9403137,39.9151394 51.1661202,43.9547325 53.2225718,45.1666104 C55.2790234,46.3784883 56.5128944,47.5903662 56.101604,50.0141221 C55.6903137,52.4378779 54.8677331,54.0537151 54.8677331,54.0537151" id="Stroke-30" stroke="#E31E43" stroke-width="1.4" stroke-linecap="round" stroke-linejoin="round"></path>
                                <polyline id="Stroke-32" stroke="#E31E43" stroke-width="1.4" stroke-linecap="round" stroke-linejoin="round" points="47.1439887 89.7216649 46.2305129 93.2377268 55.4594565 95.6614827 51.1355613 91.4740404 51.6644806 90.2237863"></polyline>
                                <path d="M18.9400839,86.0244704 L9.67247903,64.0187868" id="Stroke-34" stroke="#E31E43" stroke-width="1.4" stroke-linecap="round" stroke-linejoin="round"></path>
                                <path d="M3.69482661,64.0789362 C3.69482661,64.0789362 22.7100121,63.9892573 23.8994637,63.9892573 C25.088504,63.9892573 29.0673266,64.3277752 31.3072137,68.5079464" id="Stroke-36" stroke="#E31E43" stroke-width="1.4" stroke-linecap="round" stroke-linejoin="round"></path>
                                <g id="Group-41" transform="translate(30.846774, 19.794007)">
                                    <path d="M8.80321694,0.327126247 L0.166120161,19.7620128 C0.166120161,19.7620128 5.51289435,22.1409292 14.1499911,21.3330106" id="Fill-38" fill="#E31E43"></path>
                                    <path d="M8.80321694,0.327126247 L0.166120161,19.7620128 C0.166120161,19.7620128 5.51289435,22.1409292 14.1499911,21.3330106" id="Stroke-40" stroke="#E31E43" stroke-width="1.4" stroke-linecap="round" stroke-linejoin="round"></path>
                                </g>
                                <g id="Group-45" transform="translate(64.983871, 37.164259)">
                                    <path d="M0.0843967742,3.08087658 C2.57352581,2.7827546 2.67840484,3.88233189 4.05622742,4.19216869 C6.35287258,4.70842871 9.76205806,4.13036291 9.76205806,4.13036291 C9.76205806,4.13036291 9.09000968,2.55451758 8.40809032,1.74659893 C7.29061452,0.893032873 5.6253,0.395758942 4.05622742,0.395758942 C3.23364677,0.395758942 0.598509677,0.638538497 0.0843967742,0.638538497" id="Fill-42" fill="#E31E43"></path>
                                    <path d="M0.0843967742,3.08087658 C2.57352581,2.7827546 2.67840484,3.88233189 4.05622742,4.19216869 C6.35287258,4.70842871 9.76205806,4.13036291 9.76205806,4.13036291 C9.76205806,4.13036291 9.09000968,2.55451758 8.40809032,1.74659893 C7.29061452,0.893032873 5.6253,0.395758942 4.05622742,0.395758942 C3.23364677,0.395758942 0.598509677,0.638538497 0.0843967742,0.638538497" id="Stroke-44" stroke="#E31E43" stroke-width="1.4" stroke-linecap="round" stroke-linejoin="round"></path>
                                </g>
                                <g id="Group-49" transform="translate(44.830645, 14.946494)">
                                    <path d="M3.5649,0.353747181 C3.5649,0.353747181 7.15793226,1.13500452 9.21438387,5.17459782 C11.2708355,9.21419111 6.74664194,22.544849 6.74664194,22.544849 C6.74664194,22.544849 20.7305129,21.332971 20.3192226,22.1408897 C20.1575855,22.4584017 20.2501258,23.4626446 20.4220452,24.5646456 C20.6873274,26.2661223 21.1418032,28.2002796 21.1418032,28.2002796 C21.1418032,28.2002796 5.10148065,29.4121576 1.81115806,27.7963203 C-2.87097097,25.4969838 5.10148065,16.8894184 4.2789,13.2537844" id="Fill-46" fill="#E31E43"></path>
                                    <path d="M3.5649,0.353747181 C3.5649,0.353747181 7.15793226,1.13500452 9.21438387,5.17459782 C11.2708355,9.21419111 6.74664194,22.544849 6.74664194,22.544849 C6.74664194,22.544849 20.7305129,21.332971 20.3192226,22.1408897 C20.1575855,22.4584017 20.2501258,23.4626446 20.4220452,24.5646456 C20.6873274,26.2661223 21.1418032,28.2002796 21.1418032,28.2002796 C21.1418032,28.2002796 5.10148065,29.4121576 1.81115806,27.7963203 C-2.87097097,25.4969838 5.10148065,16.8894184 4.2789,13.2537844" id="Stroke-48" stroke="#E31E43" stroke-width="1.4" stroke-linecap="round" stroke-linejoin="round"></path>
                                </g>
                            </g>
                        </g>
                    </g>
                </g>
            </g>
        </g>
    </g>
</svg>