<?xml version="1.0" encoding="UTF-8"?>
<svg width="82px" height="81px" viewBox="0 0 82 81" version="1.1" xmlns="http://www.w3.org/2000/svg" xmlns:xlink="http://www.w3.org/1999/xlink">
    <!-- Generator: Sketch 52.6 (67491) - http://www.bohemiancoding.com/sketch -->
    <title>icon-institution</title>
    <desc>Created with Sketch.</desc>
    <g id="Desktop-R4" stroke="none" stroke-width="1" fill="none" fill-rule="evenodd">
        <g id="0.0-Home-page-" transform="translate(-1220.000000, -4897.000000)" fill="#4DC8DE">
            <g id="c8.0-two-cards-gradient-border" transform="translate(0.000000, 4703.000000)">
                <g id="Group-20" transform="translate(95.000000, 151.000000)">
                    <g id="icon-institution" transform="translate(1125.000000, 43.000000)">
                        <path d="M9.9736,24.1417 C9.5796,24.1417 9.1926,23.9557 8.9496,23.6097 C8.5526,23.0437 8.6896,22.2647 9.2546,21.8687 L40.1326,0.2267 C40.5626,-0.0743 41.1296,-0.0753 41.5596,0.2207 L71.9536,21.1627 C72.5226,21.5537 72.6656,22.3317 72.2746,22.9007 C71.8836,23.4707 71.1056,23.6137 70.5366,23.2207 L40.8566,2.7727 L10.6906,23.9147 C10.4716,24.0687 10.2216,24.1417 9.9736,24.1417 Z M20.4996,63.4507 L27.6006,63.4507 L27.6006,29.9507 L20.4996,29.9507 L20.4996,63.4507 Z M28.8506,65.9507 L19.2496,65.9507 C18.5596,65.9507 17.9996,65.3907 17.9996,64.7007 L17.9996,28.7007 C17.9996,28.0097 18.5596,27.4507 19.2496,27.4507 L28.8506,27.4507 C29.5406,27.4507 30.1006,28.0097 30.1006,28.7007 L30.1006,64.7007 C30.1006,65.3907 29.5406,65.9507 28.8506,65.9507 Z M37.2996,63.4507 L44.4006,63.4507 L44.4006,29.9507 L37.2996,29.9507 L37.2996,63.4507 Z M45.6506,65.9507 L36.0496,65.9507 C35.3596,65.9507 34.7996,65.3907 34.7996,64.7007 L34.7996,28.7007 C34.7996,28.0097 35.3596,27.4507 36.0496,27.4507 L45.6506,27.4507 C46.3406,27.4507 46.9006,28.0097 46.9006,28.7007 L46.9006,64.7007 C46.9006,65.3907 46.3406,65.9507 45.6506,65.9507 Z M54.1006,63.4507 L61.2006,63.4507 L61.2006,29.9507 L54.1006,29.9507 L54.1006,63.4507 Z M62.4506,65.9507 L52.8506,65.9507 C52.1606,65.9507 51.6006,65.3907 51.6006,64.7007 L51.6006,28.7007 C51.6006,28.0097 52.1606,27.4507 52.8506,27.4507 L62.4506,27.4507 C63.1406,27.4507 63.7006,28.0097 63.7006,28.7007 L63.7006,64.7007 C63.7006,65.3907 63.1406,65.9507 62.4506,65.9507 Z M80.4506,80.3497 L1.2496,80.3497 C0.5596,80.3497 -0.0004,79.7897 -0.0004,79.0997 L-0.0004,68.2997 C-0.0004,67.6097 0.5596,67.0497 1.2496,67.0497 L7.2006,67.0497 L7.2006,64.7007 C7.2006,64.0097 7.7596,63.4507 8.4506,63.4507 L10.7996,63.4507 L10.7996,29.9507 L1.5586,29.9507 C0.8686,29.9507 0.3086,29.3907 0.3086,28.7007 C0.3086,28.0097 0.8686,27.4507 1.5586,27.4507 L12.0496,27.4507 C12.7406,27.4507 13.2996,28.0097 13.2996,28.7007 L13.2996,64.7007 C13.2996,65.3907 12.7406,65.9507 12.0496,65.9507 L9.7006,65.9507 L9.7006,68.2997 C9.7006,68.9907 9.1406,69.5497 8.4506,69.5497 L2.4996,69.5497 L2.4996,77.8497 L79.2006,77.8497 L79.2006,69.5497 L73.2496,69.5497 C72.5596,69.5497 71.9996,68.9907 71.9996,68.2997 L71.9996,65.9507 L69.6506,65.9507 C68.9596,65.9507 68.4006,65.3907 68.4006,64.7007 L68.4006,28.7007 C68.4006,28.0097 68.9596,27.4507 69.6506,27.4507 L78.3456,27.4507 C79.0366,27.4507 79.5956,28.0097 79.5956,28.7007 C79.5956,29.3907 79.0366,29.9507 78.3456,29.9507 L70.9006,29.9507 L70.9006,63.4507 L73.2496,63.4507 C73.9406,63.4507 74.4996,64.0097 74.4996,64.7007 L74.4996,67.0497 L80.4506,67.0497 C81.1406,67.0497 81.7006,67.6097 81.7006,68.2997 L81.7006,79.0997 C81.7006,79.7897 81.1406,80.3497 80.4506,80.3497 Z" id="Fill-1"></path>
                    </g>
                </g>
            </g>
        </g>
    </g>
</svg>